<?xml version="1.0" encoding="UTF-8" standalone="no"?>
<!-- Created with Inkscape (http://www.inkscape.org/) -->

<svg
   xmlns:dc="http://purl.org/dc/elements/1.1/"
   xmlns:cc="http://creativecommons.org/ns#"
   xmlns:rdf="http://www.w3.org/1999/02/22-rdf-syntax-ns#"
   xmlns:svg="http://www.w3.org/2000/svg"
   xmlns="http://www.w3.org/2000/svg"
   xmlns:sodipodi="http://sodipodi.sourceforge.net/DTD/sodipodi-0.dtd"
   xmlns:inkscape="http://www.inkscape.org/namespaces/inkscape"
   width="450"
   height="150"
   id="svg2"
   version="1.1"
   inkscape:version="0.47 r22583"
   sodipodi:docname="mojo-final.svg"
   inkscape:export-filename="/home/cvillaronga/Dropbox/Clientes/TRIPOLI/mojo2.png"
   inkscape:export-xdpi="300"
   inkscape:export-ydpi="300">
  <defs
     id="defs4">
    <inkscape:perspective
       sodipodi:type="inkscape:persp3d"
       inkscape:vp_x="0 : 178.13393 : 1"
       inkscape:vp_y="0 : 1000 : 0"
       inkscape:vp_z="973.35828 : 178.13393 : 1"
       inkscape:persp3d-origin="486.67914 : 118.75595 : 1"
       id="perspective44" />
  </defs>
  <sodipodi:namedview
     id="base"
     pagecolor="#ffffff"
     bordercolor="#666666"
     borderopacity="1.0"
     inkscape:pageopacity="0.0"
     inkscape:pageshadow="2"
     inkscape:zoom="1.4"
     inkscape:cx="157.21651"
     inkscape:cy="175.52889"
     inkscape:document-units="px"
     inkscape:current-layer="layer1"
     showgrid="false"
     showguides="true"
     inkscape:guide-bbox="true"
     fit-margin-top="20"
     fit-margin-left="20"
     fit-margin-right="20"
     fit-margin-bottom="20"
     inkscape:window-width="1680"
     inkscape:window-height="1000"
     inkscape:window-x="0"
     inkscape:window-y="0"
     inkscape:window-maximized="1" />
  <metadata
     id="metadata7">
    <rdf:RDF>
      <cc:Work
         rdf:about="">
        <dc:format>image/svg+xml</dc:format>
        <dc:type
           rdf:resource="http://purl.org/dc/dcmitype/StillImage" />
        <dc:title></dc:title>
      </cc:Work>
    </rdf:RDF>
  </metadata>
  <g
     inkscape:label="Layer 1"
     inkscape:groupmode="layer"
     id="layer1"
     transform="translate(-311.32399,-703.76058)">
    <g
       id="g2975"
       transform="translate(3.12468,5.0215883)">
      <path
         inkscape:export-ydpi="300"
         inkscape:export-xdpi="300"
         inkscape:export-filename="/home/cvillaronga/Dropbox/Clientes/TRIPOLI/mojologo3.png"
         inkscape:connector-curvature="0"
         id="path3900"
         d="m 698.41806,735.48901 c -3.98821,0 -7.82466,0.46878 -11.4375,1.279 11.17122,2.5029 20.09826,8.55072 24.15625,16.31504 4.28899,2.87218 7.02355,7.16528 7.09375,11.97891 9.2e-4,0.0631 0,0.12399 0,0.18717 l 0,4.80405 0,6.67575 0,4.80404 c 0,0.0632 9.2e-4,0.12413 0,0.18718 -0.0703,4.82224 -2.8228,9.10669 -7.125,11.97891 -4.06706,7.74652 -12.97164,13.81614 -24.125,16.31504 3.61284,0.81021 7.44929,1.2478 11.4375,1.2478 20.16921,0 36.6261,-11.16194 37.875,-25.26803 l 0.0937,0 0,-1.71573 0,-7.54921 0,-6.67575 0,-7.54922 0,-1.71573 -0.0937,0 c -1.2489,-14.10607 -17.70579,-25.29922 -37.875,-25.29922 z m -330.4375,0.34315 c -20.16921,-1e-5 -36.6261,11.19315 -37.875,25.29922 l -0.0937,0 0,1.71573 0,7.54921 0,6.67576 0.0312,34.78253 18.125,-0.0312 c -9.2e-4,-0.0631 0,-0.12398 0,-0.18717 l 0,-34.56416 0,-6.67576 0,-4.80404 c 0,-0.0632 -9.2e-4,-0.12408 0,-0.18717 0.0702,-4.81363 2.80476,-9.10673 7.09375,-11.97892 4.05799,-7.76431 12.98503,-13.81213 24.15625,-16.31503 -3.61284,-0.81022 -7.44929,-1.279 -11.4375,-1.279 z"
         style="fill:#565248;stroke:none" />
      <path
         inkscape:export-ydpi="300"
         inkscape:export-xdpi="300"
         inkscape:export-filename="/home/cvillaronga/Dropbox/Clientes/TRIPOLI/mojologo3.png"
         inkscape:connector-curvature="0"
         d="m 375.98497,735.84466 c 3.98821,0 7.82466,0.46866 11.4375,1.27864 -11.17122,2.5022 -20.09826,8.54832 -24.15625,16.31045 -4.28899,2.87138 -7.02355,7.16327 -7.09375,11.97555 -9.2e-4,0.0631 0,0.12395 0,0.18712 l 0,4.80269 0,6.67387 0,34.56337 c 0,0.0631 -9.2e-4,0.12408 0,0.18712 l -18.14041,0.0206 -0.0158,-34.77101 0,-6.67387 0,-7.54709 0,-1.71524 0.0937,0 c 1.24889,-14.10211 17.70579,-25.29212 37.875,-25.29211 z m 315.26594,-0.36658 c -3.98821,0 -7.82466,0.46865 -11.4375,1.27864 11.17122,2.5022 20.09826,8.54832 24.15625,16.31045 4.28899,2.87137 7.02355,7.16328 7.09375,11.97555 9.2e-4,0.0631 0,0.12396 0,0.18711 l 0,4.8027 0,6.67388 0,4.80269 c 0,0.0632 9.2e-4,0.12408 0,0.18712 -0.0703,4.82088 -2.8228,9.10413 -7.125,11.97555 -4.06706,7.74434 -12.97164,13.81225 -24.125,16.31044 3.61284,0.81 7.44929,1.24746 11.4375,1.24746 20.16921,0 36.6261,-11.15881 37.875,-25.26092 l 0.0937,0 0,-1.71525 0,-7.54709 0,-6.67388 0,-7.54709 0,-1.71525 -0.0937,0 c -1.2489,-14.10211 -17.70579,-25.29211 -37.875,-25.29211 z"
         style="fill:#fee9cc;fill-opacity:1;stroke:none"
         id="path3892" />
      <rect
         inkscape:export-ydpi="300"
         inkscape:export-xdpi="300"
         inkscape:export-filename="/home/cvillaronga/Dropbox/Clientes/TRIPOLI/mojologo3.png"
         style="fill:#0069d6;fill-opacity:1;stroke:none"
         id="rect3928"
         width="376.83826"
         height="18.687822"
         x="346.08319"
         y="711.39508"
         ry="9.3439112"
         rx="9.3439112" />
      <path
         id="path3049"
         d="m 384.23402,735.66631 c -20.1694,0 -36.68699,11.19601 -37.9375,25.32642 l -0.0625,0 0,1.72444 0,49.09461 18.15625,0 0,-46.35213 c 0,-0.0633 -9.2e-4,-0.12383 0,-0.18699 0.12664,-8.69877 8.94437,-15.70695 19.8125,-15.70695 9.77243,0 17.89721,5.68481 19.53125,13.15146 0.001,0.007 -10e-4,0.014 0,0.0207 l 0,49.07384 0.3125,0 17.84375,0 0.3125,0 0,-48.99073 c 1.57617,-7.51777 9.68244,-13.25534 19.5,-13.25534 10.86814,0 19.71711,7.00818 19.84375,15.70695 9.2e-4,0.0632 0,0.1237 0,0.18699 l 0,46.35213 18.15625,0 0,-49.09462 0,-1.72444 -0.0937,0 c -1.2489,-14.1309 -17.70579,-25.32642 -37.875,-25.32642 -11.49861,0 -21.80865,3.64398 -28.78125,9.39093 -6.95515,-5.74114 -17.2269,-9.39093 -28.71875,-9.39093 z"
         style="fill:#0069d6;fill-opacity:1;stroke:none"
         inkscape:connector-curvature="0" />
      <path
         inkscape:connector-curvature="0"
         id="path3838"
         d="m 522.80696,735.66631 c -20.1694,0 -36.68699,11.19601 -37.9375,25.32642 l -0.0625,0 0,1.72444 0,7.56261 0,6.66922 0,7.5626 0,1.72444 0.0625,0 c 1.25051,14.13042 17.7681,25.32642 37.9375,25.32642 20.16921,0 36.6261,-11.19551 37.875,-25.32642 l 0.0937,0 0,-1.72444 0,-7.5626 0,-6.66922 0,-7.56261 0,-1.72444 -0.0937,0 c -1.2489,-14.1309 -17.70579,-25.32642 -37.875,-25.32642 z m -0.0312,13.8994 c 10.86814,0 19.71711,7.00818 19.84375,15.70696 9.2e-4,0.0632 0,0.12369 0,0.18698 l 0,4.82013 0,6.66922 0,4.82012 c 0,0.0633 9.2e-4,0.12383 0,0.18699 -0.12664,8.69877 -8.97561,15.70695 -19.84375,15.70695 -10.86813,0 -19.68586,-7.00818 -19.8125,-15.70695 -9.2e-4,-0.0632 0,-0.1237 0,-0.18699 l 0,-4.82012 0,-6.66922 0,-4.82013 c 0,-0.0633 -9.2e-4,-0.12382 0,-0.18698 0.12664,-8.69878 8.94437,-15.70696 19.8125,-15.70696 z"
         style="fill:#0069d6;fill-opacity:1;stroke:none" />
      <path
         sodipodi:nodetypes="scccccssssscccccss"
         style="fill:#0069d6;fill-opacity:1;stroke:none"
         d="m 603.87983,811.52733 c -20.1694,0 -36.68699,-11.196 -37.9375,-25.32642 l -0.0625,0 0,-1.72444 0,-2.92272 18.15625,0 0,0.18024 c 0,0.0633 -9.2e-4,0.12383 0,0.18699 0.12664,8.69877 8.94437,15.70695 19.8125,15.70695 10.86814,0 19.71711,-7.00818 19.84375,-15.70695 9.2e-4,-0.0632 0,-0.1237 0,-0.18699 l 0,-46.06126 18.15625,0 0,48.80374 0,1.72444 -0.0937,0 c -1.2489,14.13091 -17.70579,25.32642 -37.875,25.32642 z"
         id="path3855"
         inkscape:connector-curvature="0" />
      <path
         inkscape:connector-curvature="0"
         style="fill:#0069d6;fill-opacity:1;stroke:none"
         d="m 684.95277,735.66631 c -20.1694,0 -36.68699,11.19601 -37.9375,25.32642 l -0.0625,0 0,1.72444 0,7.56261 0,6.66922 0,7.5626 0,1.72444 0.0625,0 c 1.25051,14.13042 17.7681,25.32642 37.9375,25.32642 20.16921,0 36.6261,-11.19551 37.875,-25.32642 l 0.0937,0 0,-1.72444 0,-7.5626 0,-6.66922 0,-7.56261 0,-1.72444 -0.0937,0 c -1.2489,-14.1309 -17.70579,-25.32642 -37.875,-25.32642 z m -0.0312,13.8994 c 10.86814,0 19.71711,7.00818 19.84375,15.70696 9.2e-4,0.0632 0,0.12369 0,0.18698 l 0,4.82013 0,6.66922 0,4.82012 c 0,0.0633 9.2e-4,0.12383 0,0.18699 -0.12664,8.69877 -8.97561,15.70695 -19.84375,15.70695 -10.86813,0 -19.68586,-7.00818 -19.8125,-15.70695 -9.2e-4,-0.0632 0,-0.1237 0,-0.18699 l 0,-4.82012 0,-6.66922 0,-4.82013 c 0,-0.0633 -9.2e-4,-0.12382 0,-0.18698 0.12664,-8.69878 8.94437,-15.70696 19.8125,-15.70696 z"
         id="path3857" />
      <rect
         inkscape:export-ydpi="300"
         inkscape:export-xdpi="300"
         inkscape:export-filename="/home/cvillaronga/Dropbox/Clientes/TRIPOLI/mojologo3.png"
         ry="9.3439112"
         y="711.39508"
         x="614.03516"
         height="18.687822"
         width="37.220036"
         id="rect3922"
         style="fill:#565248;stroke:none"
         rx="9.3439112" />
      <rect
         inkscape:export-ydpi="300"
         inkscape:export-xdpi="300"
         inkscape:export-filename="/home/cvillaronga/Dropbox/Clientes/TRIPOLI/mojologo3.png"
         ry="9.3439112"
         y="817.39508"
         x="346.08319"
         height="18.687822"
         width="376.83826"
         id="rect3930"
         style="fill:#0069d6;fill-opacity:1;stroke:none"
         rx="9.3439112" />
      <rect
         inkscape:export-ydpi="300"
         inkscape:export-xdpi="300"
         inkscape:export-filename="/home/cvillaronga/Dropbox/Clientes/TRIPOLI/mojologo3.png"
         style="fill:#d9bb7a;stroke:none"
         id="rect3954"
         width="29.012545"
         height="18.687822"
         x="617.69696"
         y="711.39508"
         ry="9.3439112"
         rx="9.3439112" />
      <rect
         inkscape:export-ydpi="300"
         inkscape:export-xdpi="300"
         inkscape:export-filename="/home/cvillaronga/Dropbox/Clientes/TRIPOLI/mojologo3.png"
         style="fill:#ffffff;stroke:none"
         id="rect3952"
         width="21.183859"
         height="18.687822"
         x="621.86383"
         y="711.39508"
         ry="9.3439112"
         rx="9.3439112" />
    </g>
  </g>
</svg>
